<svg xmlns="http://www.w3.org/2000/svg" viewBox="0 0 1921.44 1080"><defs><style>.cls-1{fill:#f4f4f4;}.cls-2{fill:#86e3ef;}.cls-3{opacity:0.48;}.cls-4{fill:#57c6d5;}.cls-5{fill:#f2f2f2;}.cls-6{fill:#e6e6e6;}.cls-7{fill:#ccc;}.cls-8{fill:#fff;}.cls-9{opacity:0.18;}.cls-10,.cls-12{fill:#bcbcbd;}.cls-10{opacity:0.22;}.cls-11{fill:#9e9e9e;}.cls-13{fill:#5dc8d6;}.cls-14{opacity:0.4;}.cls-15{fill:#98e4ea;}.cls-16{opacity:0.13;}</style></defs><title>Fichier 1</title><g id="Calque_2" data-name="Calque 2"><g id="Calque_6" data-name="Calque 6"><rect class="cls-1" width="1920" height="1080"/></g><g id="Calque_3" data-name="Calque 3"><rect class="cls-2" width="1920" height="1080"/><g class="cls-3"><polygon class="cls-4" points="1813.11 343.91 1770.56 344.15 1770.16 271.59 1727.6 271.83 1727.77 302.25 1641.81 302.73 1642.5 427.94 1556.55 428.41 1557.36 575.5 1484.8 575.9 1484.48 518.13 1423.85 480.71 1423.54 424.31 1402.26 424.43 1402.5 467.53 1378.58 452.78 1379.52 622.08 1273.73 577.07 1273.38 511.95 1209.55 512.31 1208.98 410.39 1145.16 410.74 1144.59 307.88 1102.04 308.12 1101.75 256.22 1015.79 256.69 1016.35 357.66 955.07 358 956.29 578.82 887.07 579.2 886.87 544 870.55 544.09 870.14 470.77 854.83 470.85 854.26 367.99 832.84 368.11 832.35 278.46 821.69 278.52 821.58 257.87 800.17 257.98 800.29 278.64 788.81 278.7 789.3 368.35 767.88 368.47 768.45 471.33 749.58 471.43 749.98 544.76 733.2 544.85 733.19 544.71 700.44 544.89 699.73 415.09 615.16 415.55 616.59 673.43 565.32 638.02 565.25 626.56 461.18 581.54 460.35 431.31 400.64 383.66 400.25 311.99 379.32 312.1 379.62 366.88 356.07 348.09 357.01 517.95 252.82 451.52 210.95 451.75 210.63 393.25 168.77 393.48 168.9 418.01 84.34 418.48 84.9 519.45 0.33 519.91 2.23 863.4 86.79 862.94 171.35 862.47 213.22 862.24 255.08 862.01 358.9 861.44 462.72 860.87 566.54 860.29 617.61 860.01 618.45 860.01 701.34 859.55 702.18 859.55 734.93 859.37 871.87 858.61 888.61 858.52 957.83 858.14 1019.11 857.8 1043.79 857.66 1105.06 857.33 1105.07 858.27 1147.62 858.04 1211.45 857.68 1211.45 858.63 1275.28 858.28 1275.27 856.39 1380.81 855.81 1380.81 856.75 1486.34 856.17 1604.64 855.52 1604.63 854.12 1644.85 853.9 1730.81 853.42 1773.36 853.19 1815.91 852.96 1921.44 852.38 1920 519 1813.11 343.91"/></g></g><g id="Cloud"><path class="cls-5" d="M285.24,312.24a37.64,37.64,0,0,0-26.57,10.94,48.46,48.46,0,0,0-72.28-17,48.45,48.45,0,0,0-79.18,9A32.1,32.1,0,0,0,70,346.85c0,1.06.05,2.11.16,3.15H323A37.76,37.76,0,0,0,285.24,312.24Z"/><path class="cls-5" d="M564.24,169.24a37.64,37.64,0,0,0-26.57,10.94,48.46,48.46,0,0,0-72.28-17,48.45,48.45,0,0,0-79.18,9A32.1,32.1,0,0,0,349,203.85c0,1.06.05,2.11.16,3.15H602A37.76,37.76,0,0,0,564.24,169.24Z"/><path class="cls-5" d="M756.88,122.25a18.69,18.69,0,0,0-13.2,5.43,24.06,24.06,0,0,0-35.89-8.46,24.06,24.06,0,0,0-39.32,4.48A15.94,15.94,0,0,0,650,139.44c0,.53,0,1,.08,1.56H775.63A18.75,18.75,0,0,0,756.88,122.25Z"/><path class="cls-5" d="M392.88,58.25a18.69,18.69,0,0,0-13.2,5.43,24.06,24.06,0,0,0-35.89-8.46,24.06,24.06,0,0,0-39.32,4.48A15.94,15.94,0,0,0,286,75.44c0,.53,0,1,.08,1.56H411.63A18.75,18.75,0,0,0,392.88,58.25Z"/><path class="cls-5" d="M1048.84,171.84a27.07,27.07,0,0,0-19.12,7.87,34.86,34.86,0,0,0-52-12.26,34.85,34.85,0,0,0-57,6.5A23.09,23.09,0,0,0,894,196.74c0,.76,0,1.52.11,2.26H1076A27.16,27.16,0,0,0,1048.84,171.84Z"/><path class="cls-5" d="M170.65,102.71a10.26,10.26,0,0,0-7.24,3A13.2,13.2,0,0,0,143.71,101a13.2,13.2,0,0,0-21.58,2.46A8.75,8.75,0,0,0,112,112.14c0,.29,0,.58,0,.86h68.9A10.29,10.29,0,0,0,170.65,102.71Z"/><path class="cls-5" d="M1308.61,106.61a32.28,32.28,0,0,0-22.79,9.38,41.57,41.57,0,0,0-62-14.62,41.55,41.55,0,0,0-67.91,7.75A27.53,27.53,0,0,0,1124,136.3c0,.91,0,1.81.13,2.7H1341A32.39,32.39,0,0,0,1308.61,106.61Z"/><path class="cls-5" d="M1454.67,312.67a34.22,34.22,0,0,0-24.16,9.95,44.06,44.06,0,0,0-65.71-15.49,44,44,0,0,0-72,8.21A29.18,29.18,0,0,0,1259,344.14c0,1,0,1.92.14,2.86H1489A34.33,34.33,0,0,0,1454.67,312.67Z"/><path class="cls-5" d="M1764.27,123.27a43.59,43.59,0,0,0-30.78,12.67,56.12,56.12,0,0,0-83.71-19.74,56.11,56.11,0,0,0-91.7,10.46,37.17,37.17,0,0,0-43.08,36.7c0,1.23.06,2.44.18,3.64H1808A43.73,43.73,0,0,0,1764.27,123.27Z"/></g><g id="Road"><rect class="cls-6" y="941.01" width="1920" height="138.99"/><rect class="cls-6" y="852" width="1920" height="7.03"/><rect class="cls-7" y="858.45" width="1920" height="82.56"/><rect class="cls-8" x="12" y="899.24" width="85" height="2.93"/><rect class="cls-8" x="118.41" y="899.24" width="85" height="2.93"/><rect class="cls-8" x="224.82" y="899.24" width="85" height="2.93"/><rect class="cls-8" x="331.24" y="899.24" width="85" height="2.93"/><rect class="cls-8" x="437.65" y="899.24" width="85" height="2.93"/><rect class="cls-8" x="544.06" y="899.24" width="85" height="2.93"/><rect class="cls-8" x="650.47" y="899.24" width="85" height="2.93"/><rect class="cls-8" x="756.88" y="899.24" width="85" height="2.93"/><rect class="cls-8" x="863.29" y="899.24" width="85" height="2.93"/><rect class="cls-8" x="969.71" y="899.24" width="85" height="2.93"/><rect class="cls-8" x="1076.12" y="899.24" width="85" height="2.93"/><rect class="cls-8" x="1182.53" y="899.24" width="85" height="2.93"/><rect class="cls-8" x="1288.94" y="899.24" width="85" height="2.93"/><rect class="cls-8" x="1395.35" y="899.24" width="85" height="2.93"/><rect class="cls-8" x="1501.76" y="899.24" width="85" height="2.93"/><rect class="cls-8" x="1608.18" y="899.24" width="85" height="2.93"/><rect class="cls-8" x="1714.59" y="899.24" width="85" height="2.93"/><rect class="cls-8" x="1821" y="899.24" width="85" height="2.93"/></g><g id="Calque_4" data-name="Calque 4"><rect class="cls-1" x="147.85" y="414.3" width="173.79" height="437.7"/><g class="cls-9"><rect class="cls-4" x="147.85" y="421" width="173.79" height="63.01"/></g><rect class="cls-10" x="148.05" y="524.72" width="173.39" height="2.75"/><rect class="cls-10" x="148.05" y="601.63" width="173.39" height="2.75"/><rect class="cls-10" x="147.85" y="673.62" width="173.39" height="2.75"/><rect class="cls-11" x="140.24" y="408.06" width="189" height="7.6" rx="1.65" ry="1.65"/><rect class="cls-11" x="147.85" y="415.66" width="173.79" height="5.43"/><g class="cls-9"><rect class="cls-4" x="147.85" y="676.38" width="173.79" height="175.62"/></g><g class="cls-3"><rect class="cls-4" x="163.3" y="700.48" width="52.26" height="36.79"/></g><rect class="cls-12" x="161.3" y="728.27" width="56.26" height="10"/><g class="cls-3"><path class="cls-4" d="M204.35,701.27s-7.62,23-16.87,27h28.08V701.21Z"/></g><rect class="cls-12" x="162.3" y="698.48" width="54.26" height="2.79" rx="1.39" ry="1.39"/><rect class="cls-11" x="161.3" y="737.02" width="56.26" height="1.25"/><g class="cls-3"><rect class="cls-4" x="255.47" y="700.48" width="52.26" height="36.79"/></g><rect class="cls-12" x="253.47" y="728.27" width="56.26" height="10"/><g class="cls-3"><path class="cls-4" d="M296.52,701.27s-7.62,23-16.87,27h28.08V701.21Z"/></g><rect class="cls-12" x="254.47" y="698.48" width="54.26" height="2.79" rx="1.39" ry="1.39"/><rect class="cls-11" x="253.47" y="737.02" width="56.26" height="1.25"/><g class="cls-3"><rect class="cls-4" x="290.62" y="782.97" width="16.28" height="26.3"/></g><rect class="cls-12" x="290" y="802.84" width="17.52" height="7.15"/><g class="cls-3"><path class="cls-4" d="M303.41,783.53S301,800,298.15,802.84h8.75V783.49Z"/></g><rect class="cls-12" x="290.31" y="781.54" width="16.9" height="1.99" rx="1" ry="1"/><rect class="cls-11" x="290" y="809.09" width="17.52" height="0.89"/><g class="cls-3"><rect class="cls-4" x="162.93" y="782.97" width="16.28" height="26.3"/></g><rect class="cls-12" x="162.3" y="802.84" width="17.52" height="7.15"/><g class="cls-3"><path class="cls-4" d="M175.71,783.53s-2.37,16.44-5.26,19.3h8.75V783.49Z"/></g><rect class="cls-12" x="162.61" y="781.54" width="16.9" height="1.99" rx="1" ry="1"/><rect class="cls-11" x="162.3" y="809.09" width="17.52" height="0.89"/><g class="cls-3"><rect class="cls-4" x="162.53" y="623.57" width="52.26" height="36.79"/></g><rect class="cls-12" x="160.53" y="651.36" width="56.26" height="10"/><g class="cls-3"><path class="cls-4" d="M203.58,624.36s-7.62,23-16.87,27h28.08V624.3Z"/></g><rect class="cls-12" x="161.53" y="621.57" width="54.26" height="2.79" rx="1.39" ry="1.39"/><rect class="cls-11" x="160.53" y="660.11" width="56.26" height="1.25"/><g class="cls-3"><rect class="cls-4" x="254.69" y="623.57" width="52.26" height="36.79"/></g><rect class="cls-12" x="252.69" y="651.36" width="56.26" height="10"/><g class="cls-3"><path class="cls-4" d="M295.74,624.36s-7.62,23-16.87,27H307V624.3Z"/></g><rect class="cls-12" x="253.69" y="621.57" width="54.26" height="2.79" rx="1.39" ry="1.39"/><rect class="cls-11" x="252.69" y="660.11" width="56.26" height="1.25"/><g class="cls-3"><rect class="cls-4" x="163.69" y="546.66" width="52.26" height="36.79"/></g><rect class="cls-12" x="161.69" y="574.45" width="56.26" height="10"/><g class="cls-3"><path class="cls-4" d="M204.74,547.45s-7.62,23-16.87,27h28.08V547.39Z"/></g><rect class="cls-12" x="162.69" y="544.66" width="54.26" height="2.79" rx="1.39" ry="1.39"/><rect class="cls-11" x="161.69" y="583.2" width="56.26" height="1.25"/><g class="cls-3"><rect class="cls-4" x="255.85" y="546.66" width="52.26" height="36.79"/></g><rect class="cls-12" x="253.85" y="574.45" width="56.26" height="10"/><g class="cls-3"><path class="cls-4" d="M296.9,547.45s-7.62,23-16.87,27h28.08V547.39Z"/></g><rect class="cls-12" x="254.85" y="544.66" width="54.26" height="2.79" rx="1.39" ry="1.39"/><rect class="cls-11" x="253.85" y="583.2" width="56.26" height="1.25"/><g class="cls-3"><rect class="cls-4" x="162.92" y="469.75" width="52.26" height="36.79"/></g><rect class="cls-12" x="160.92" y="497.54" width="56.26" height="10"/><g class="cls-3"><path class="cls-4" d="M204,470.54s-7.62,23-16.87,27h28.08V470.48Z"/></g><rect class="cls-12" x="161.92" y="467.75" width="54.26" height="2.79" rx="1.39" ry="1.39"/><rect class="cls-11" x="160.92" y="506.29" width="56.26" height="1.25"/><g class="cls-3"><rect class="cls-4" x="255.08" y="469.75" width="52.26" height="36.79"/></g><rect class="cls-12" x="253.08" y="497.54" width="56.26" height="10"/><g class="cls-3"><path class="cls-4" d="M296.13,470.54s-7.62,23-16.87,27h28.08V470.48Z"/></g><rect class="cls-12" x="254.08" y="467.75" width="54.26" height="2.79" rx="1.39" ry="1.39"/><rect class="cls-11" x="253.08" y="506.29" width="56.26" height="1.25"/><rect class="cls-10" x="147.85" y="757.12" width="173.79" height="2.75"/><rect class="cls-13" x="208.41" y="779.16" width="52.26" height="70.67"/><g class="cls-14"><path class="cls-15" d="M260.67,779.16v64.64H225c10.06-14.31,17.83-43.68,17.83-64.64Z"/></g><g class="cls-16"><rect x="234.27" y="779.16" width="0.55" height="64.64"/></g><rect class="cls-11" x="206.95" y="777.91" width="55.17" height="3.42" rx="1.71" ry="1.71"/><g class="cls-16"><rect x="230.66" y="807.09" width="2.17" height="7.41" rx="1.08" ry="1.08"/></g><g class="cls-16"><rect x="236.25" y="807.09" width="2.17" height="7.41" rx="1.08" ry="1.08"/></g><rect class="cls-7" x="260.67" y="824.08" width="16.5" height="27.92"/><rect class="cls-7" x="191.91" y="824.08" width="16.5" height="27.92"/><rect class="cls-11" x="190.04" y="821.42" width="19.83" height="4.33" rx="2.17" ry="2.17"/><rect class="cls-11" x="259" y="821.92" width="19.83" height="4.33" rx="2.17" ry="2.17"/><rect class="cls-12" x="206.41" y="843.81" width="56.26" height="7.94"/><rect class="cls-11" x="204.06" y="849.35" width="60.96" height="2.65"/><rect class="cls-1" x="892.22" y="414.27" width="173.79" height="437.7"/><g class="cls-9"><rect class="cls-4" x="892.22" y="420.97" width="173.79" height="63.01"/></g><rect class="cls-10" x="892.42" y="524.7" width="173.39" height="2.75"/><rect class="cls-10" x="892.42" y="601.61" width="173.39" height="2.75"/><rect class="cls-10" x="892.22" y="673.6" width="173.39" height="2.75"/><rect class="cls-11" x="884.62" y="408.03" width="189" height="7.6" rx="1.65" ry="1.65"/><rect class="cls-11" x="892.22" y="415.63" width="173.79" height="5.43"/><g class="cls-9"><rect class="cls-4" x="892.22" y="676.35" width="173.79" height="175.62"/></g><g class="cls-3"><rect class="cls-4" x="907.68" y="700.45" width="52.26" height="36.79"/></g><rect class="cls-12" x="905.68" y="728.24" width="56.26" height="10"/><g class="cls-3"><path class="cls-4" d="M948.73,701.24s-7.62,23-16.87,27h28.08V701.18Z"/></g><rect class="cls-12" x="906.68" y="698.45" width="54.26" height="2.79" rx="1.39" ry="1.39"/><rect class="cls-11" x="905.68" y="736.99" width="56.26" height="1.25"/><g class="cls-3"><rect class="cls-4" x="999.84" y="700.45" width="52.26" height="36.79"/></g><rect class="cls-12" x="997.84" y="728.24" width="56.26" height="10"/><g class="cls-3"><path class="cls-4" d="M1040.89,701.24s-7.62,23-16.87,27h28.08V701.18Z"/></g><rect class="cls-12" x="998.84" y="698.45" width="54.26" height="2.79" rx="1.39" ry="1.39"/><rect class="cls-11" x="997.84" y="736.99" width="56.26" height="1.25"/><g class="cls-3"><rect class="cls-4" x="1035" y="782.94" width="16.28" height="26.3"/></g><rect class="cls-12" x="1034.38" y="802.81" width="17.52" height="7.15"/><g class="cls-3"><path class="cls-4" d="M1047.78,783.51s-2.37,16.44-5.26,19.3h8.75V783.47Z"/></g><rect class="cls-12" x="1034.69" y="781.51" width="16.9" height="1.99" rx="1" ry="1"/><rect class="cls-11" x="1034.38" y="809.06" width="17.52" height="0.89"/><g class="cls-3"><rect class="cls-4" x="907.3" y="782.94" width="16.28" height="26.3"/></g><rect class="cls-12" x="906.68" y="802.81" width="17.52" height="7.15"/><g class="cls-3"><path class="cls-4" d="M920.09,783.51s-2.37,16.44-5.26,19.3h8.75V783.47Z"/></g><rect class="cls-12" x="906.99" y="781.51" width="16.9" height="1.99" rx="1" ry="1"/><rect class="cls-11" x="906.68" y="809.06" width="17.52" height="0.89"/><g class="cls-3"><rect class="cls-4" x="906.91" y="623.54" width="52.26" height="36.79"/></g><rect class="cls-12" x="904.91" y="651.33" width="56.26" height="10"/><g class="cls-3"><path class="cls-4" d="M948,624.33s-7.62,23-16.87,27h28.08V624.27Z"/></g><rect class="cls-12" x="905.91" y="621.54" width="54.26" height="2.79" rx="1.39" ry="1.39"/><rect class="cls-11" x="904.91" y="660.08" width="56.26" height="1.25"/><g class="cls-3"><rect class="cls-4" x="999.07" y="623.54" width="52.26" height="36.79"/></g><rect class="cls-12" x="997.07" y="651.33" width="56.26" height="10"/><g class="cls-3"><path class="cls-4" d="M1040.12,624.33s-7.62,23-16.87,27h28.08V624.27Z"/></g><rect class="cls-12" x="998.07" y="621.54" width="54.26" height="2.79" rx="1.39" ry="1.39"/><rect class="cls-11" x="997.07" y="660.08" width="56.26" height="1.25"/><g class="cls-3"><rect class="cls-4" x="908.07" y="546.63" width="52.26" height="36.79"/></g><rect class="cls-12" x="906.07" y="574.42" width="56.26" height="10"/><g class="cls-3"><path class="cls-4" d="M949.11,547.42s-7.62,23-16.87,27h28.08V547.36Z"/></g><rect class="cls-12" x="907.07" y="544.63" width="54.26" height="2.79" rx="1.39" ry="1.39"/><rect class="cls-11" x="906.07" y="583.17" width="56.26" height="1.25"/><g class="cls-3"><rect class="cls-4" x="1000.23" y="546.63" width="52.26" height="36.79"/></g><rect class="cls-12" x="998.23" y="574.42" width="56.26" height="10"/><g class="cls-3"><path class="cls-4" d="M1041.28,547.42s-7.62,23-16.87,27h28.08V547.36Z"/></g><rect class="cls-12" x="999.23" y="544.63" width="54.26" height="2.79" rx="1.39" ry="1.39"/><rect class="cls-11" x="998.23" y="583.17" width="56.26" height="1.25"/><g class="cls-3"><rect class="cls-4" x="907.29" y="469.72" width="52.26" height="36.79"/></g><rect class="cls-12" x="905.29" y="497.51" width="56.26" height="10"/><g class="cls-3"><path class="cls-4" d="M948.34,470.51s-7.62,23-16.87,27h28.08V470.45Z"/></g><rect class="cls-12" x="906.29" y="467.72" width="54.26" height="2.79" rx="1.39" ry="1.39"/><rect class="cls-11" x="905.29" y="506.26" width="56.26" height="1.25"/><g class="cls-3"><rect class="cls-4" x="999.46" y="469.72" width="52.26" height="36.79"/></g><rect class="cls-12" x="997.46" y="497.51" width="56.26" height="10"/><g class="cls-3"><path class="cls-4" d="M1040.51,470.51s-7.62,23-16.87,27h28.08V470.45Z"/></g><rect class="cls-12" x="998.46" y="467.72" width="54.26" height="2.79" rx="1.39" ry="1.39"/><rect class="cls-11" x="997.46" y="506.26" width="56.26" height="1.25"/><rect class="cls-10" x="892.22" y="757.1" width="173.79" height="2.75"/><rect class="cls-13" x="952.78" y="779.13" width="52.26" height="70.67"/><g class="cls-14"><path class="cls-15" d="M1005,779.13v64.64H969.38c10.06-14.31,17.83-43.68,17.83-64.64Z"/></g><g class="cls-16"><rect x="978.64" y="779.13" width="0.55" height="64.64"/></g><rect class="cls-11" x="951.33" y="777.88" width="55.17" height="3.42" rx="1.71" ry="1.71"/><g class="cls-16"><rect x="975.03" y="807.06" width="2.17" height="7.41" rx="1.08" ry="1.08"/></g><g class="cls-16"><rect x="980.63" y="807.06" width="2.17" height="7.41" rx="1.08" ry="1.08"/></g><rect class="cls-7" x="1005.04" y="824.06" width="16.5" height="27.92"/><rect class="cls-7" x="936.29" y="824.06" width="16.5" height="27.92"/><rect class="cls-11" x="934.42" y="821.39" width="19.83" height="4.33" rx="2.17" ry="2.17"/><rect class="cls-11" x="1003.38" y="821.89" width="19.83" height="4.33" rx="2.17" ry="2.17"/><rect class="cls-12" x="950.78" y="843.78" width="56.26" height="7.94"/><rect class="cls-11" x="948.43" y="849.32" width="60.96" height="2.65"/><rect class="cls-1" x="1605.06" y="413.36" width="173.79" height="437.7"/><g class="cls-9"><rect class="cls-4" x="1605.06" y="420.06" width="173.79" height="63.01"/></g><rect class="cls-10" x="1605.26" y="523.78" width="173.39" height="2.75"/><rect class="cls-10" x="1605.26" y="600.69" width="173.39" height="2.75"/><rect class="cls-10" x="1605.06" y="672.68" width="173.39" height="2.75"/><rect class="cls-11" x="1597.45" y="407.12" width="189" height="7.6" rx="1.65" ry="1.65"/><rect class="cls-11" x="1605.06" y="414.72" width="173.79" height="5.43"/><g class="cls-9"><rect class="cls-4" x="1605.06" y="675.43" width="173.79" height="175.62"/></g><g class="cls-3"><rect class="cls-4" x="1620.51" y="699.54" width="52.26" height="36.79"/></g><rect class="cls-12" x="1618.51" y="727.33" width="56.26" height="10"/><g class="cls-3"><path class="cls-4" d="M1661.56,700.33s-7.62,23-16.87,27h28.08V700.27Z"/></g><rect class="cls-12" x="1619.51" y="697.54" width="54.26" height="2.79" rx="1.39" ry="1.39"/><rect class="cls-11" x="1618.51" y="736.08" width="56.26" height="1.25"/><g class="cls-3"><rect class="cls-4" x="1712.68" y="699.54" width="52.26" height="36.79"/></g><rect class="cls-12" x="1710.68" y="727.33" width="56.26" height="10"/><g class="cls-3"><path class="cls-4" d="M1753.73,700.33s-7.62,23-16.87,27h28.08V700.27Z"/></g><rect class="cls-12" x="1711.68" y="697.54" width="54.26" height="2.79" rx="1.39" ry="1.39"/><rect class="cls-11" x="1710.68" y="736.08" width="56.26" height="1.25"/><g class="cls-3"><rect class="cls-4" x="1747.83" y="782.03" width="16.28" height="26.3"/></g><rect class="cls-12" x="1747.21" y="801.89" width="17.52" height="7.15"/><g class="cls-3"><path class="cls-4" d="M1760.62,782.59s-2.37,16.44-5.26,19.3h8.75V782.55Z"/></g><rect class="cls-12" x="1747.52" y="780.6" width="16.9" height="1.99" rx="1" ry="1"/><rect class="cls-11" x="1747.21" y="808.15" width="17.52" height="0.89"/><g class="cls-3"><rect class="cls-4" x="1620.14" y="782.03" width="16.28" height="26.3"/></g><rect class="cls-12" x="1619.51" y="801.89" width="17.52" height="7.15"/><g class="cls-3"><path class="cls-4" d="M1632.92,782.59s-2.37,16.44-5.26,19.3h8.75V782.55Z"/></g><rect class="cls-12" x="1619.83" y="780.6" width="16.9" height="1.99" rx="1" ry="1"/><rect class="cls-11" x="1619.51" y="808.15" width="17.52" height="0.89"/><g class="cls-3"><rect class="cls-4" x="1619.74" y="622.63" width="52.26" height="36.79"/></g><rect class="cls-12" x="1617.74" y="650.42" width="56.26" height="10"/><g class="cls-3"><path class="cls-4" d="M1660.79,623.42s-7.62,23-16.87,27H1672V623.36Z"/></g><rect class="cls-12" x="1618.74" y="620.63" width="54.26" height="2.79" rx="1.39" ry="1.39"/><rect class="cls-11" x="1617.74" y="659.17" width="56.26" height="1.25"/><g class="cls-3"><rect class="cls-4" x="1711.9" y="622.63" width="52.26" height="36.79"/></g><rect class="cls-12" x="1709.9" y="650.42" width="56.26" height="10"/><g class="cls-3"><path class="cls-4" d="M1753,623.42s-7.62,23-16.87,27h28.08V623.36Z"/></g><rect class="cls-12" x="1710.9" y="620.63" width="54.26" height="2.79" rx="1.39" ry="1.39"/><rect class="cls-11" x="1709.9" y="659.17" width="56.26" height="1.25"/><g class="cls-3"><rect class="cls-4" x="1620.9" y="545.72" width="52.26" height="36.79"/></g><rect class="cls-12" x="1618.9" y="573.51" width="56.26" height="10"/><g class="cls-3"><path class="cls-4" d="M1661.95,546.51s-7.62,23-16.87,27h28.08V546.45Z"/></g><rect class="cls-12" x="1619.9" y="543.72" width="54.26" height="2.79" rx="1.39" ry="1.39"/><rect class="cls-11" x="1618.9" y="582.26" width="56.26" height="1.25"/><g class="cls-3"><rect class="cls-4" x="1713.06" y="545.72" width="52.26" height="36.79"/></g><rect class="cls-12" x="1711.06" y="573.51" width="56.26" height="10"/><g class="cls-3"><path class="cls-4" d="M1754.11,546.51s-7.62,23-16.87,27h28.08V546.45Z"/></g><rect class="cls-12" x="1712.06" y="543.72" width="54.26" height="2.79" rx="1.39" ry="1.39"/><rect class="cls-11" x="1711.06" y="582.26" width="56.26" height="1.25"/><g class="cls-3"><rect class="cls-4" x="1620.13" y="468.81" width="52.26" height="36.79"/></g><rect class="cls-12" x="1618.13" y="496.6" width="56.26" height="10"/><g class="cls-3"><path class="cls-4" d="M1661.18,469.6s-7.62,23-16.87,27h28.08V469.54Z"/></g><rect class="cls-12" x="1619.13" y="466.81" width="54.26" height="2.79" rx="1.39" ry="1.39"/><rect class="cls-11" x="1618.13" y="505.35" width="56.26" height="1.25"/><g class="cls-3"><rect class="cls-4" x="1712.29" y="468.81" width="52.26" height="36.79"/></g><rect class="cls-12" x="1710.29" y="496.6" width="56.26" height="10"/><g class="cls-3"><path class="cls-4" d="M1753.34,469.6s-7.62,23-16.87,27h28.08V469.54Z"/></g><rect class="cls-12" x="1711.29" y="466.81" width="54.26" height="2.79" rx="1.39" ry="1.39"/><rect class="cls-11" x="1710.29" y="505.35" width="56.26" height="1.25"/><rect class="cls-10" x="1605.06" y="756.18" width="173.79" height="2.75"/><rect class="cls-13" x="1665.62" y="778.22" width="52.26" height="70.67"/><g class="cls-14"><path class="cls-15" d="M1717.88,778.22v64.64h-35.67c10.06-14.31,17.83-43.68,17.83-64.64Z"/></g><g class="cls-16"><rect x="1691.48" y="778.22" width="0.55" height="64.64"/></g><rect class="cls-11" x="1664.17" y="776.97" width="55.17" height="3.42" rx="1.71" ry="1.71"/><g class="cls-16"><rect x="1687.87" y="806.15" width="2.17" height="7.41" rx="1.08" ry="1.08"/></g><g class="cls-16"><rect x="1693.46" y="806.15" width="2.17" height="7.41" rx="1.08" ry="1.08"/></g><rect class="cls-7" x="1717.88" y="823.14" width="16.5" height="27.92"/><rect class="cls-7" x="1649.12" y="823.14" width="16.5" height="27.92"/><rect class="cls-11" x="1647.25" y="820.48" width="19.83" height="4.33" rx="2.17" ry="2.17"/><rect class="cls-11" x="1716.21" y="820.98" width="19.83" height="4.33" rx="2.17" ry="2.17"/><rect class="cls-12" x="1663.62" y="842.87" width="56.26" height="7.94"/><rect class="cls-11" x="1661.27" y="848.41" width="60.96" height="2.65"/><rect class="cls-1" x="360.16" y="502.54" width="173.79" height="352.58"/><g class="cls-9"><rect class="cls-4" x="360.16" y="502.54" width="173.79" height="63.01"/></g><rect class="cls-10" x="360.16" y="527.85" width="173.79" height="2.75"/><rect class="cls-10" x="360.37" y="604.76" width="173.39" height="2.75"/><rect class="cls-10" x="360.16" y="676.75" width="173.39" height="2.75"/><rect class="cls-11" x="352.56" y="496.02" width="189" height="7.6" rx="1.65" ry="1.65"/><rect class="cls-11" x="360.16" y="503.62" width="173.79" height="5.43"/><g class="cls-9"><rect class="cls-4" x="360.16" y="679.5" width="173.79" height="175.62"/></g><g class="cls-3"><rect class="cls-4" x="375.62" y="703.6" width="52.26" height="36.79"/></g><rect class="cls-12" x="373.62" y="731.39" width="56.26" height="10"/><g class="cls-3"><path class="cls-4" d="M416.67,704.39s-7.62,23-16.87,27h28.08V704.34Z"/></g><rect class="cls-12" x="374.62" y="701.6" width="54.26" height="2.79" rx="1.39" ry="1.39"/><rect class="cls-11" x="373.62" y="740.14" width="56.26" height="1.25"/><g class="cls-3"><rect class="cls-4" x="467.78" y="703.6" width="52.26" height="36.79"/></g><rect class="cls-12" x="465.78" y="731.39" width="56.26" height="10"/><g class="cls-3"><path class="cls-4" d="M508.83,704.39s-7.62,23-16.87,27H520V704.34Z"/></g><rect class="cls-12" x="466.78" y="701.6" width="54.26" height="2.79" rx="1.39" ry="1.39"/><rect class="cls-11" x="465.78" y="740.14" width="56.26" height="1.25"/><g class="cls-3"><rect class="cls-4" x="502.94" y="786.09" width="16.28" height="26.3"/></g><rect class="cls-12" x="502.32" y="805.96" width="17.52" height="7.15"/><g class="cls-3"><path class="cls-4" d="M515.72,786.66s-2.37,16.44-5.26,19.3h8.75V786.62Z"/></g><rect class="cls-12" x="502.63" y="784.66" width="16.9" height="1.99" rx="1" ry="1"/><rect class="cls-11" x="502.32" y="812.21" width="17.52" height="0.89"/><g class="cls-3"><rect class="cls-4" x="375.24" y="786.09" width="16.28" height="26.3"/></g><rect class="cls-12" x="374.62" y="805.96" width="17.52" height="7.15"/><g class="cls-3"><path class="cls-4" d="M388,786.66s-2.37,16.44-5.26,19.3h8.75V786.62Z"/></g><rect class="cls-12" x="374.93" y="784.66" width="16.9" height="1.99" rx="1" ry="1"/><rect class="cls-11" x="374.62" y="812.21" width="17.52" height="0.89"/><g class="cls-3"><rect class="cls-4" x="374.85" y="626.69" width="52.26" height="36.79"/></g><rect class="cls-12" x="372.85" y="654.48" width="56.26" height="10"/><g class="cls-3"><path class="cls-4" d="M415.9,627.48s-7.62,23-16.87,27h28.08V627.42Z"/></g><rect class="cls-12" x="373.85" y="624.69" width="54.26" height="2.79" rx="1.39" ry="1.39"/><rect class="cls-11" x="372.85" y="663.23" width="56.26" height="1.25"/><g class="cls-3"><rect class="cls-4" x="467.01" y="626.69" width="52.26" height="36.79"/></g><rect class="cls-12" x="465.01" y="654.48" width="56.26" height="10"/><g class="cls-3"><path class="cls-4" d="M508.06,627.48s-7.62,23-16.87,27h28.08V627.42Z"/></g><rect class="cls-12" x="466.01" y="624.69" width="54.26" height="2.79" rx="1.39" ry="1.39"/><rect class="cls-11" x="465.01" y="663.23" width="56.26" height="1.25"/><g class="cls-3"><rect class="cls-4" x="376.01" y="549.78" width="52.26" height="36.79"/></g><rect class="cls-12" x="374.01" y="577.57" width="56.26" height="10"/><g class="cls-3"><path class="cls-4" d="M417.06,550.57s-7.62,23-16.87,27h28.08V550.51Z"/></g><rect class="cls-12" x="375.01" y="547.78" width="54.26" height="2.79" rx="1.39" ry="1.39"/><rect class="cls-11" x="374.01" y="586.32" width="56.26" height="1.25"/><g class="cls-3"><rect class="cls-4" x="468.17" y="549.78" width="52.26" height="36.79"/></g><rect class="cls-12" x="466.17" y="577.57" width="56.26" height="10"/><g class="cls-3"><path class="cls-4" d="M509.22,550.57s-7.62,23-16.87,27h28.08V550.51Z"/></g><rect class="cls-12" x="467.17" y="547.78" width="54.26" height="2.79" rx="1.39" ry="1.39"/><rect class="cls-11" x="466.17" y="586.32" width="56.26" height="1.25"/><rect class="cls-10" x="360.16" y="760.25" width="173.79" height="2.75"/><rect class="cls-13" x="420.73" y="782.28" width="52.26" height="70.67"/><g class="cls-14"><path class="cls-15" d="M473,782.28v64.64H437.32c10.06-14.31,17.83-43.68,17.83-64.64Z"/></g><g class="cls-16"><rect x="446.58" y="782.28" width="0.55" height="64.64"/></g><rect class="cls-11" x="419.27" y="781.03" width="55.17" height="3.42" rx="1.71" ry="1.71"/><g class="cls-16"><rect x="442.97" y="810.21" width="2.17" height="7.41" rx="1.08" ry="1.08"/></g><g class="cls-16"><rect x="448.57" y="810.21" width="2.17" height="7.41" rx="1.08" ry="1.08"/></g><rect class="cls-7" x="472.98" y="827.21" width="16.5" height="27.92"/><rect class="cls-7" x="404.23" y="827.21" width="16.5" height="27.92"/><rect class="cls-11" x="402.36" y="824.54" width="19.83" height="4.33" rx="2.17" ry="2.17"/><rect class="cls-11" x="471.32" y="825.04" width="19.83" height="4.33" rx="2.17" ry="2.17"/><rect class="cls-12" x="418.73" y="846.93" width="56.26" height="7.94"/><rect class="cls-11" x="416.38" y="852.47" width="60.96" height="2.65"/><rect class="cls-1" x="689.33" y="499.71" width="173.79" height="352.58"/><g class="cls-9"><rect class="cls-4" x="689.33" y="499.71" width="173.79" height="63.01"/></g><rect class="cls-10" x="689.33" y="525.02" width="173.79" height="2.75"/><rect class="cls-10" x="689.53" y="601.93" width="173.39" height="2.75"/><rect class="cls-10" x="689.33" y="673.92" width="173.39" height="2.75"/><rect class="cls-11" x="681.73" y="493.2" width="189" height="7.6" rx="1.65" ry="1.65"/><rect class="cls-11" x="689.33" y="500.8" width="173.79" height="5.43"/><g class="cls-9"><rect class="cls-4" x="689.33" y="676.67" width="173.79" height="175.62"/></g><g class="cls-3"><rect class="cls-4" x="704.79" y="700.78" width="52.26" height="36.79"/></g><rect class="cls-12" x="702.79" y="728.57" width="56.26" height="10"/><g class="cls-3"><path class="cls-4" d="M745.84,701.57s-7.62,23-16.87,27H757V701.51Z"/></g><rect class="cls-12" x="703.79" y="698.78" width="54.26" height="2.79" rx="1.39" ry="1.39"/><rect class="cls-11" x="702.79" y="737.32" width="56.26" height="1.25"/><g class="cls-3"><rect class="cls-4" x="796.95" y="700.78" width="52.26" height="36.79"/></g><rect class="cls-12" x="794.95" y="728.57" width="56.26" height="10"/><g class="cls-3"><path class="cls-4" d="M838,701.57s-7.62,23-16.87,27h28.08V701.51Z"/></g><rect class="cls-12" x="795.95" y="698.78" width="54.26" height="2.79" rx="1.39" ry="1.39"/><rect class="cls-11" x="794.95" y="737.32" width="56.26" height="1.25"/><g class="cls-3"><rect class="cls-4" x="832.11" y="783.27" width="16.28" height="26.3"/></g><rect class="cls-12" x="831.48" y="803.13" width="17.52" height="7.15"/><g class="cls-3"><path class="cls-4" d="M844.89,783.83s-2.37,16.44-5.26,19.3h8.75V783.79Z"/></g><rect class="cls-12" x="831.8" y="781.84" width="16.9" height="1.99" rx="1" ry="1"/><rect class="cls-11" x="831.48" y="809.39" width="17.52" height="0.89"/><g class="cls-3"><rect class="cls-4" x="704.41" y="783.27" width="16.28" height="26.3"/></g><rect class="cls-12" x="703.79" y="803.13" width="17.52" height="7.15"/><g class="cls-3"><path class="cls-4" d="M717.2,783.83s-2.37,16.44-5.26,19.3h8.75V783.79Z"/></g><rect class="cls-12" x="704.1" y="781.84" width="16.9" height="1.99" rx="1" ry="1"/><rect class="cls-11" x="703.79" y="809.39" width="17.52" height="0.89"/><g class="cls-3"><rect class="cls-4" x="704.02" y="623.87" width="52.26" height="36.79"/></g><rect class="cls-12" x="702.02" y="651.66" width="56.26" height="10"/><g class="cls-3"><path class="cls-4" d="M745.07,624.66s-7.62,23-16.87,27h28.08V624.6Z"/></g><rect class="cls-12" x="703.02" y="621.87" width="54.26" height="2.79" rx="1.39" ry="1.39"/><rect class="cls-11" x="702.02" y="660.41" width="56.26" height="1.25"/><g class="cls-3"><rect class="cls-4" x="796.18" y="623.87" width="52.26" height="36.79"/></g><rect class="cls-12" x="794.18" y="651.66" width="56.26" height="10"/><g class="cls-3"><path class="cls-4" d="M837.23,624.66s-7.62,23-16.87,27h28.08V624.6Z"/></g><rect class="cls-12" x="795.18" y="621.87" width="54.26" height="2.79" rx="1.39" ry="1.39"/><rect class="cls-11" x="794.18" y="660.41" width="56.26" height="1.25"/><g class="cls-3"><rect class="cls-4" x="705.17" y="546.96" width="52.26" height="36.79"/></g><rect class="cls-12" x="703.17" y="574.75" width="56.26" height="10"/><g class="cls-3"><path class="cls-4" d="M746.22,547.75s-7.62,23-16.87,27h28.08V547.69Z"/></g><rect class="cls-12" x="704.17" y="544.96" width="54.26" height="2.79" rx="1.39" ry="1.39"/><rect class="cls-11" x="703.17" y="583.5" width="56.26" height="1.25"/><g class="cls-3"><rect class="cls-4" x="797.34" y="546.96" width="52.26" height="36.79"/></g><rect class="cls-12" x="795.34" y="574.75" width="56.26" height="10"/><g class="cls-3"><path class="cls-4" d="M838.39,547.75s-7.62,23-16.87,27h28.08V547.69Z"/></g><rect class="cls-12" x="796.34" y="544.96" width="54.26" height="2.79" rx="1.39" ry="1.39"/><rect class="cls-11" x="795.34" y="583.5" width="56.26" height="1.25"/><rect class="cls-10" x="689.33" y="757.42" width="173.79" height="2.75"/><rect class="cls-13" x="749.89" y="779.46" width="52.26" height="70.67"/><g class="cls-14"><path class="cls-15" d="M802.15,779.46V844.1H766.48c10.06-14.31,17.83-43.68,17.83-64.64Z"/></g><g class="cls-16"><rect x="775.75" y="779.46" width="0.55" height="64.64"/></g><rect class="cls-11" x="748.44" y="778.21" width="55.17" height="3.42" rx="1.71" ry="1.71"/><g class="cls-16"><rect x="772.14" y="807.39" width="2.17" height="7.41" rx="1.08" ry="1.08"/></g><g class="cls-16"><rect x="777.74" y="807.39" width="2.17" height="7.41" rx="1.08" ry="1.08"/></g><rect class="cls-7" x="802.15" y="824.38" width="16.5" height="27.92"/><rect class="cls-7" x="733.39" y="824.38" width="16.5" height="27.92"/><rect class="cls-11" x="731.53" y="821.72" width="19.83" height="4.33" rx="2.17" ry="2.17"/><rect class="cls-11" x="800.48" y="822.22" width="19.83" height="4.33" rx="2.17" ry="2.17"/><rect class="cls-12" x="747.89" y="844.1" width="56.26" height="7.94"/><rect class="cls-11" x="745.54" y="849.65" width="60.96" height="2.65"/><rect class="cls-1" x="1275.37" y="499.65" width="173.79" height="352.58"/><g class="cls-9"><rect class="cls-4" x="1275.37" y="499.65" width="173.79" height="63.01"/></g><rect class="cls-10" x="1275.37" y="524.96" width="173.79" height="2.75"/><rect class="cls-10" x="1275.57" y="601.87" width="173.39" height="2.75"/><rect class="cls-10" x="1275.37" y="673.86" width="173.39" height="2.75"/><rect class="cls-11" x="1267.76" y="493.13" width="189" height="7.6" rx="1.65" ry="1.65"/><rect class="cls-11" x="1275.37" y="500.74" width="173.79" height="5.43"/><g class="cls-9"><rect class="cls-4" x="1275.37" y="676.61" width="173.79" height="175.62"/></g><g class="cls-3"><rect class="cls-4" x="1290.83" y="700.72" width="52.26" height="36.79"/></g><rect class="cls-12" x="1288.83" y="728.5" width="56.26" height="10"/><g class="cls-3"><path class="cls-4" d="M1331.88,701.5s-7.62,23-16.87,27h28.08V701.45Z"/></g><rect class="cls-12" x="1289.83" y="698.72" width="54.26" height="2.79" rx="1.39" ry="1.39"/><rect class="cls-11" x="1288.83" y="737.25" width="56.26" height="1.25"/><g class="cls-3"><rect class="cls-4" x="1382.99" y="700.72" width="52.26" height="36.79"/></g><rect class="cls-12" x="1380.99" y="728.5" width="56.26" height="10"/><g class="cls-3"><path class="cls-4" d="M1424,701.5s-7.62,23-16.87,27h28.08V701.45Z"/></g><rect class="cls-12" x="1381.99" y="698.72" width="54.26" height="2.79" rx="1.39" ry="1.39"/><rect class="cls-11" x="1380.99" y="737.25" width="56.26" height="1.25"/><g class="cls-3"><rect class="cls-4" x="1418.15" y="783.21" width="16.28" height="26.3"/></g><rect class="cls-12" x="1417.52" y="803.07" width="17.52" height="7.15"/><g class="cls-3"><path class="cls-4" d="M1430.93,783.77s-2.37,16.44-5.26,19.3h8.75V783.73Z"/></g><rect class="cls-12" x="1417.83" y="781.78" width="16.9" height="1.99" rx="1" ry="1"/><rect class="cls-11" x="1417.52" y="809.33" width="17.52" height="0.89"/><g class="cls-3"><rect class="cls-4" x="1290.45" y="783.21" width="16.28" height="26.3"/></g><rect class="cls-12" x="1289.83" y="803.07" width="17.52" height="7.15"/><g class="cls-3"><path class="cls-4" d="M1303.23,783.77s-2.37,16.44-5.26,19.3h8.75V783.73Z"/></g><rect class="cls-12" x="1290.14" y="781.78" width="16.9" height="1.99" rx="1" ry="1"/><rect class="cls-11" x="1289.83" y="809.33" width="17.52" height="0.89"/><g class="cls-3"><rect class="cls-4" x="1290.05" y="623.81" width="52.26" height="36.79"/></g><rect class="cls-12" x="1288.05" y="651.59" width="56.26" height="10"/><g class="cls-3"><path class="cls-4" d="M1331.1,624.59s-7.62,23-16.87,27h28.08V624.54Z"/></g><rect class="cls-12" x="1289.05" y="621.81" width="54.26" height="2.79" rx="1.39" ry="1.39"/><rect class="cls-11" x="1288.05" y="660.34" width="56.26" height="1.25"/><g class="cls-3"><rect class="cls-4" x="1382.22" y="623.81" width="52.26" height="36.79"/></g><rect class="cls-12" x="1380.22" y="651.59" width="56.26" height="10"/><g class="cls-3"><path class="cls-4" d="M1423.27,624.59s-7.62,23-16.87,27h28.08V624.54Z"/></g><rect class="cls-12" x="1381.22" y="621.81" width="54.26" height="2.79" rx="1.39" ry="1.39"/><rect class="cls-11" x="1380.22" y="660.34" width="56.26" height="1.25"/><g class="cls-3"><rect class="cls-4" x="1291.21" y="546.9" width="52.26" height="36.79"/></g><rect class="cls-12" x="1289.21" y="574.68" width="56.26" height="10"/><g class="cls-3"><path class="cls-4" d="M1332.26,547.68s-7.62,23-16.87,27h28.08V547.63Z"/></g><rect class="cls-12" x="1290.21" y="544.9" width="54.26" height="2.79" rx="1.39" ry="1.39"/><rect class="cls-11" x="1289.21" y="583.43" width="56.26" height="1.25"/><g class="cls-3"><rect class="cls-4" x="1383.37" y="546.9" width="52.26" height="36.79"/></g><rect class="cls-12" x="1381.37" y="574.68" width="56.26" height="10"/><g class="cls-3"><path class="cls-4" d="M1424.42,547.68s-7.62,23-16.87,27h28.08V547.63Z"/></g><rect class="cls-12" x="1382.37" y="544.9" width="54.26" height="2.79" rx="1.39" ry="1.39"/><rect class="cls-11" x="1381.37" y="583.43" width="56.26" height="1.25"/><rect class="cls-10" x="1275.37" y="757.36" width="173.79" height="2.75"/><rect class="cls-13" x="1335.93" y="779.4" width="52.26" height="70.67"/><g class="cls-14"><path class="cls-15" d="M1388.19,779.4V844h-35.67c10.06-14.31,17.83-43.68,17.83-64.64Z"/></g><g class="cls-16"><rect x="1361.79" y="779.4" width="0.55" height="64.64"/></g><rect class="cls-11" x="1334.48" y="778.14" width="55.17" height="3.42" rx="1.71" ry="1.71"/><g class="cls-16"><rect x="1358.18" y="807.33" width="2.17" height="7.41" rx="1.08" ry="1.08"/></g><g class="cls-16"><rect x="1363.77" y="807.33" width="2.17" height="7.41" rx="1.08" ry="1.08"/></g><rect class="cls-7" x="1388.19" y="824.32" width="16.5" height="27.92"/><rect class="cls-7" x="1319.43" y="824.32" width="16.5" height="27.92"/><rect class="cls-11" x="1317.56" y="821.65" width="19.83" height="4.33" rx="2.17" ry="2.17"/><rect class="cls-11" x="1386.52" y="822.15" width="19.83" height="4.33" rx="2.17" ry="2.17"/><rect class="cls-12" x="1333.93" y="844.04" width="56.26" height="7.94"/><rect class="cls-11" x="1331.58" y="849.58" width="60.96" height="2.65"/></g></g></svg>